<mxfile host="app.diagrams.net" modified="2023-06-04T13:44:44.278Z" agent="Mozilla/5.0 (X11; Linux x86_64; rv:109.0) Gecko/20100101 Firefox/113.0" etag="wNY8FuoYUHFoWTzLh_7p" version="21.3.7" type="device">
  <diagram name="Page-1" id="eJTANjoa0-_0GD8r01db">
    <mxGraphModel dx="1432" dy="1864" grid="1" gridSize="10" guides="1" tooltips="1" connect="1" arrows="1" fold="1" page="1" pageScale="1" pageWidth="850" pageHeight="1100" math="0" shadow="0">
      <root>
        <mxCell id="0" />
        <mxCell id="1" parent="0" />
        <mxCell id="xboVKvCkaLDGGz-Pp3LQ-1" value="&lt;div&gt;&lt;font color=&quot;#00cc00&quot;&gt;&lt;b&gt;&lt;font style=&quot;font-size: 20px;&quot;&gt;Cruddur VPC&lt;/font&gt;&lt;/b&gt;&lt;/font&gt;&lt;/div&gt;&lt;div&gt;&lt;font color=&quot;#00cc00&quot;&gt;&lt;b&gt;&lt;font style=&quot;font-size: 20px;&quot;&gt;10.0.0.0/12&lt;br&gt;&lt;/font&gt;&lt;/b&gt;&lt;/font&gt;&lt;/div&gt;" style="points=[[0,0],[0.25,0],[0.5,0],[0.75,0],[1,0],[1,0.25],[1,0.5],[1,0.75],[1,1],[0.75,1],[0.5,1],[0.25,1],[0,1],[0,0.75],[0,0.5],[0,0.25]];outlineConnect=0;gradientColor=none;html=1;whiteSpace=wrap;fontSize=12;fontStyle=0;container=1;pointerEvents=0;collapsible=0;recursiveResize=0;shape=mxgraph.aws4.group;grIcon=mxgraph.aws4.group_vpc;strokeColor=#248814;fillColor=none;verticalAlign=top;align=left;spacingLeft=30;fontColor=#AAB7B8;dashed=0;" vertex="1" parent="1">
          <mxGeometry x="120" y="30" width="520" height="770" as="geometry" />
        </mxCell>
        <mxCell id="xboVKvCkaLDGGz-Pp3LQ-2" value="&lt;b&gt;&lt;font style=&quot;font-size: 14px;&quot;&gt;SubnetPub1(10.0.0.0/22)&lt;/font&gt;&lt;/b&gt;" style="points=[[0,0],[0.25,0],[0.5,0],[0.75,0],[1,0],[1,0.25],[1,0.5],[1,0.75],[1,1],[0.75,1],[0.5,1],[0.25,1],[0,1],[0,0.75],[0,0.5],[0,0.25]];outlineConnect=0;gradientColor=none;html=1;whiteSpace=wrap;fontSize=12;fontStyle=0;container=1;pointerEvents=0;collapsible=0;recursiveResize=0;shape=mxgraph.aws4.group;grIcon=mxgraph.aws4.group_security_group;grStroke=0;strokeColor=#248814;fillColor=#E9F3E6;verticalAlign=top;align=left;spacingLeft=30;fontColor=#248814;dashed=0;" vertex="1" parent="xboVKvCkaLDGGz-Pp3LQ-1">
          <mxGeometry x="30" y="110" width="200" height="140" as="geometry" />
        </mxCell>
        <mxCell id="xboVKvCkaLDGGz-Pp3LQ-3" value="&lt;b&gt;&lt;font style=&quot;font-size: 14px;&quot;&gt;SubnetPriv1(10.0.12.0/22)&lt;/font&gt;&lt;/b&gt;" style="points=[[0,0],[0.25,0],[0.5,0],[0.75,0],[1,0],[1,0.25],[1,0.5],[1,0.75],[1,1],[0.75,1],[0.5,1],[0.25,1],[0,1],[0,0.75],[0,0.5],[0,0.25]];outlineConnect=0;gradientColor=none;html=1;whiteSpace=wrap;fontSize=12;fontStyle=0;container=1;pointerEvents=0;collapsible=0;recursiveResize=0;shape=mxgraph.aws4.group;grIcon=mxgraph.aws4.group_security_group;grStroke=0;strokeColor=#147EBA;fillColor=#E6F2F8;verticalAlign=top;align=left;spacingLeft=30;fontColor=#147EBA;dashed=0;" vertex="1" parent="xboVKvCkaLDGGz-Pp3LQ-1">
          <mxGeometry x="270" y="90" width="200" height="160" as="geometry" />
        </mxCell>
        <mxCell id="xboVKvCkaLDGGz-Pp3LQ-8" value="&lt;b&gt;&lt;font style=&quot;font-size: 14px;&quot;&gt;SubnetPub2(10.0.4.0/22)&lt;/font&gt;&lt;/b&gt;" style="points=[[0,0],[0.25,0],[0.5,0],[0.75,0],[1,0],[1,0.25],[1,0.5],[1,0.75],[1,1],[0.75,1],[0.5,1],[0.25,1],[0,1],[0,0.75],[0,0.5],[0,0.25]];outlineConnect=0;gradientColor=none;html=1;whiteSpace=wrap;fontSize=12;fontStyle=0;container=1;pointerEvents=0;collapsible=0;recursiveResize=0;shape=mxgraph.aws4.group;grIcon=mxgraph.aws4.group_security_group;grStroke=0;strokeColor=#248814;fillColor=#E9F3E6;verticalAlign=top;align=left;spacingLeft=30;fontColor=#248814;dashed=0;" vertex="1" parent="xboVKvCkaLDGGz-Pp3LQ-1">
          <mxGeometry x="30" y="340" width="200" height="140" as="geometry" />
        </mxCell>
        <mxCell id="xboVKvCkaLDGGz-Pp3LQ-9" value="&lt;b&gt;&lt;font style=&quot;font-size: 14px;&quot;&gt;SubnetPriv2(10.0.16.0/22)&lt;/font&gt;&lt;/b&gt;" style="points=[[0,0],[0.25,0],[0.5,0],[0.75,0],[1,0],[1,0.25],[1,0.5],[1,0.75],[1,1],[0.75,1],[0.5,1],[0.25,1],[0,1],[0,0.75],[0,0.5],[0,0.25]];outlineConnect=0;gradientColor=none;html=1;whiteSpace=wrap;fontSize=12;fontStyle=0;container=1;pointerEvents=0;collapsible=0;recursiveResize=0;shape=mxgraph.aws4.group;grIcon=mxgraph.aws4.group_security_group;grStroke=0;strokeColor=#147EBA;fillColor=#E6F2F8;verticalAlign=top;align=left;spacingLeft=30;fontColor=#147EBA;dashed=0;" vertex="1" parent="xboVKvCkaLDGGz-Pp3LQ-1">
          <mxGeometry x="270" y="320" width="200" height="160" as="geometry" />
        </mxCell>
        <mxCell id="xboVKvCkaLDGGz-Pp3LQ-10" value="&lt;b&gt;&lt;font style=&quot;font-size: 14px;&quot;&gt;SubnetPub3(10.0.8.0/22)&lt;/font&gt;&lt;/b&gt;" style="points=[[0,0],[0.25,0],[0.5,0],[0.75,0],[1,0],[1,0.25],[1,0.5],[1,0.75],[1,1],[0.75,1],[0.5,1],[0.25,1],[0,1],[0,0.75],[0,0.5],[0,0.25]];outlineConnect=0;gradientColor=none;html=1;whiteSpace=wrap;fontSize=12;fontStyle=0;container=1;pointerEvents=0;collapsible=0;recursiveResize=0;shape=mxgraph.aws4.group;grIcon=mxgraph.aws4.group_security_group;grStroke=0;strokeColor=#248814;fillColor=#E9F3E6;verticalAlign=top;align=left;spacingLeft=30;fontColor=#248814;dashed=0;" vertex="1" parent="xboVKvCkaLDGGz-Pp3LQ-1">
          <mxGeometry x="30" y="580" width="200" height="140" as="geometry" />
        </mxCell>
        <mxCell id="xboVKvCkaLDGGz-Pp3LQ-11" value="&lt;b&gt;&lt;font style=&quot;font-size: 14px;&quot;&gt;SubnetPriv3(10.0.20.0/22)&lt;/font&gt;&lt;/b&gt;" style="points=[[0,0],[0.25,0],[0.5,0],[0.75,0],[1,0],[1,0.25],[1,0.5],[1,0.75],[1,1],[0.75,1],[0.5,1],[0.25,1],[0,1],[0,0.75],[0,0.5],[0,0.25]];outlineConnect=0;gradientColor=none;html=1;whiteSpace=wrap;fontSize=12;fontStyle=0;container=1;pointerEvents=0;collapsible=0;recursiveResize=0;shape=mxgraph.aws4.group;grIcon=mxgraph.aws4.group_security_group;grStroke=0;strokeColor=#147EBA;fillColor=#E6F2F8;verticalAlign=top;align=left;spacingLeft=30;fontColor=#147EBA;dashed=0;" vertex="1" parent="xboVKvCkaLDGGz-Pp3LQ-1">
          <mxGeometry x="280" y="560" width="200" height="160" as="geometry" />
        </mxCell>
        <mxCell id="xboVKvCkaLDGGz-Pp3LQ-15" value="&lt;font style=&quot;font-size: 14px;&quot;&gt;&lt;b&gt;AZ1 (ca-central-1a)&lt;/b&gt;&lt;/font&gt;" style="text;html=1;strokeColor=none;fillColor=none;align=center;verticalAlign=middle;whiteSpace=wrap;rounded=0;" vertex="1" parent="xboVKvCkaLDGGz-Pp3LQ-1">
          <mxGeometry x="30" y="80" width="140" height="30" as="geometry" />
        </mxCell>
        <mxCell id="xboVKvCkaLDGGz-Pp3LQ-16" value="&lt;b&gt;&lt;font style=&quot;font-size: 14px;&quot;&gt;AZ2 (ca-central-1b)&lt;/font&gt;&lt;/b&gt;" style="text;html=1;strokeColor=none;fillColor=none;align=center;verticalAlign=middle;whiteSpace=wrap;rounded=0;" vertex="1" parent="xboVKvCkaLDGGz-Pp3LQ-1">
          <mxGeometry x="30" y="310" width="150" height="30" as="geometry" />
        </mxCell>
        <mxCell id="xboVKvCkaLDGGz-Pp3LQ-12" value="" style="rounded=1;arcSize=10;dashed=1;strokeColor=#F59D56;fillColor=none;gradientColor=none;dashPattern=8 4;strokeWidth=2;" vertex="1" parent="xboVKvCkaLDGGz-Pp3LQ-1">
          <mxGeometry x="10" y="60.25" width="490" height="219.5" as="geometry" />
        </mxCell>
        <mxCell id="xboVKvCkaLDGGz-Pp3LQ-13" value="" style="rounded=1;arcSize=10;dashed=1;strokeColor=#F59D56;fillColor=none;gradientColor=none;dashPattern=8 4;strokeWidth=2;" vertex="1" parent="xboVKvCkaLDGGz-Pp3LQ-1">
          <mxGeometry x="10" y="300" width="490" height="209.75" as="geometry" />
        </mxCell>
        <mxCell id="xboVKvCkaLDGGz-Pp3LQ-14" value="" style="rounded=1;arcSize=10;dashed=1;strokeColor=#F59D56;fillColor=none;gradientColor=none;dashPattern=8 4;strokeWidth=2;" vertex="1" parent="xboVKvCkaLDGGz-Pp3LQ-1">
          <mxGeometry x="10" y="530.25" width="490" height="219.5" as="geometry" />
        </mxCell>
        <mxCell id="xboVKvCkaLDGGz-Pp3LQ-18" value="" style="sketch=0;outlineConnect=0;fontColor=#232F3E;gradientColor=none;fillColor=#4D27AA;strokeColor=none;dashed=0;verticalLabelPosition=bottom;verticalAlign=top;align=center;html=1;fontSize=12;fontStyle=0;aspect=fixed;pointerEvents=1;shape=mxgraph.aws4.customer_gateway;" vertex="1" parent="xboVKvCkaLDGGz-Pp3LQ-1">
          <mxGeometry x="230" y="-40" width="60" height="60" as="geometry" />
        </mxCell>
        <mxCell id="xboVKvCkaLDGGz-Pp3LQ-21" value="" style="curved=1;endArrow=classic;html=1;rounded=0;" edge="1" parent="xboVKvCkaLDGGz-Pp3LQ-1" target="xboVKvCkaLDGGz-Pp3LQ-18">
          <mxGeometry width="50" height="50" relative="1" as="geometry">
            <mxPoint x="370" y="90" as="sourcePoint" />
            <mxPoint x="390" y="30" as="targetPoint" />
            <Array as="points">
              <mxPoint x="390" y="80" />
              <mxPoint x="340" y="30" />
            </Array>
          </mxGeometry>
        </mxCell>
        <mxCell id="xboVKvCkaLDGGz-Pp3LQ-22" value="" style="curved=1;endArrow=classic;html=1;rounded=0;" edge="1" parent="xboVKvCkaLDGGz-Pp3LQ-1" target="xboVKvCkaLDGGz-Pp3LQ-18">
          <mxGeometry width="50" height="50" relative="1" as="geometry">
            <mxPoint x="190" y="110" as="sourcePoint" />
            <mxPoint x="300" y="15" as="targetPoint" />
            <Array as="points">
              <mxPoint x="400" y="90" />
              <mxPoint x="350" y="40" />
            </Array>
          </mxGeometry>
        </mxCell>
        <mxCell id="xboVKvCkaLDGGz-Pp3LQ-23" value="" style="curved=1;endArrow=classic;html=1;rounded=0;exitX=0.245;exitY=0.238;exitDx=0;exitDy=0;exitPerimeter=0;" edge="1" parent="xboVKvCkaLDGGz-Pp3LQ-1" source="xboVKvCkaLDGGz-Pp3LQ-13">
          <mxGeometry width="50" height="50" relative="1" as="geometry">
            <mxPoint x="200" y="70" as="sourcePoint" />
            <mxPoint x="250" y="20" as="targetPoint" />
            <Array as="points">
              <mxPoint x="250" y="70" />
            </Array>
          </mxGeometry>
        </mxCell>
        <mxCell id="xboVKvCkaLDGGz-Pp3LQ-25" value="" style="curved=1;endArrow=classic;html=1;rounded=0;exitX=0.367;exitY=0.227;exitDx=0;exitDy=0;exitPerimeter=0;" edge="1" parent="xboVKvCkaLDGGz-Pp3LQ-1" source="xboVKvCkaLDGGz-Pp3LQ-14">
          <mxGeometry width="50" height="50" relative="1" as="geometry">
            <mxPoint x="210" y="70" as="sourcePoint" />
            <mxPoint x="260" y="20" as="targetPoint" />
            <Array as="points">
              <mxPoint x="260" y="70" />
              <mxPoint x="255" y="40" />
            </Array>
          </mxGeometry>
        </mxCell>
        <mxCell id="xboVKvCkaLDGGz-Pp3LQ-26" value="" style="curved=1;endArrow=classic;html=1;rounded=0;exitX=0.714;exitY=0.181;exitDx=0;exitDy=0;exitPerimeter=0;" edge="1" parent="xboVKvCkaLDGGz-Pp3LQ-1" source="xboVKvCkaLDGGz-Pp3LQ-14" target="xboVKvCkaLDGGz-Pp3LQ-18">
          <mxGeometry width="50" height="50" relative="1" as="geometry">
            <mxPoint x="200" y="590" as="sourcePoint" />
            <mxPoint x="270" y="30" as="targetPoint" />
            <Array as="points">
              <mxPoint x="270" y="80" />
              <mxPoint x="265" y="50" />
            </Array>
          </mxGeometry>
        </mxCell>
        <mxCell id="xboVKvCkaLDGGz-Pp3LQ-27" value="&lt;b&gt;&lt;font style=&quot;font-size: 14px;&quot;&gt;Subnet Direction Associations&lt;/font&gt;&lt;/b&gt;" style="text;html=1;strokeColor=none;fillColor=none;align=center;verticalAlign=middle;whiteSpace=wrap;rounded=0;" vertex="1" parent="xboVKvCkaLDGGz-Pp3LQ-1">
          <mxGeometry x="280" y="20" width="220" height="30" as="geometry" />
        </mxCell>
        <mxCell id="xboVKvCkaLDGGz-Pp3LQ-17" value="&lt;b&gt;&lt;font style=&quot;font-size: 14px;&quot;&gt;AZ2 (ca-central-1d)&lt;/font&gt;&lt;/b&gt;" style="text;html=1;strokeColor=none;fillColor=none;align=center;verticalAlign=middle;whiteSpace=wrap;rounded=0;" vertex="1" parent="1">
          <mxGeometry x="160" y="570" width="150" height="30" as="geometry" />
        </mxCell>
        <mxCell id="xboVKvCkaLDGGz-Pp3LQ-24" value="" style="curved=1;endArrow=classic;html=1;rounded=0;exitX=0.673;exitY=0.095;exitDx=0;exitDy=0;exitPerimeter=0;" edge="1" parent="1" source="xboVKvCkaLDGGz-Pp3LQ-13">
          <mxGeometry width="50" height="50" relative="1" as="geometry">
            <mxPoint x="260" y="390" as="sourcePoint" />
            <mxPoint x="380" y="60" as="targetPoint" />
            <Array as="points">
              <mxPoint x="380" y="110" />
            </Array>
          </mxGeometry>
        </mxCell>
        <mxCell id="xboVKvCkaLDGGz-Pp3LQ-28" value="" style="sketch=0;outlineConnect=0;fontColor=#232F3E;gradientColor=none;fillColor=#4D27AA;strokeColor=none;dashed=0;verticalLabelPosition=bottom;verticalAlign=top;align=center;html=1;fontSize=12;fontStyle=0;aspect=fixed;pointerEvents=1;shape=mxgraph.aws4.route_table;" vertex="1" parent="1">
          <mxGeometry x="354.21" y="-140" width="51.58" height="50.26" as="geometry" />
        </mxCell>
        <mxCell id="xboVKvCkaLDGGz-Pp3LQ-29" value="" style="sketch=0;outlineConnect=0;fontColor=#232F3E;gradientColor=none;fillColor=#4D27AA;strokeColor=none;dashed=0;verticalLabelPosition=bottom;verticalAlign=top;align=center;html=1;fontSize=12;fontStyle=0;aspect=fixed;pointerEvents=1;shape=mxgraph.aws4.internet_gateway;" vertex="1" parent="1">
          <mxGeometry x="190" y="-144.87" width="60" height="60" as="geometry" />
        </mxCell>
        <mxCell id="xboVKvCkaLDGGz-Pp3LQ-30" value="&lt;b style=&quot;font-size: 14px;&quot;&gt;Cruddur GW&lt;br&gt;&lt;/b&gt;" style="text;html=1;strokeColor=none;fillColor=none;align=center;verticalAlign=middle;whiteSpace=wrap;rounded=0;" vertex="1" parent="1">
          <mxGeometry x="180" y="-84.87" width="80" height="30" as="geometry" />
        </mxCell>
        <mxCell id="xboVKvCkaLDGGz-Pp3LQ-31" value="&lt;b style=&quot;font-size: 14px;&quot;&gt;Cruddur RT&lt;br&gt;&lt;/b&gt;" style="text;html=1;strokeColor=none;fillColor=none;align=center;verticalAlign=middle;whiteSpace=wrap;rounded=0;" vertex="1" parent="1">
          <mxGeometry x="345" y="-89.74000000000001" width="80" height="30" as="geometry" />
        </mxCell>
        <mxCell id="xboVKvCkaLDGGz-Pp3LQ-32" value="" style="endArrow=classic;startArrow=classic;html=1;rounded=0;" edge="1" parent="1" source="xboVKvCkaLDGGz-Pp3LQ-29" target="xboVKvCkaLDGGz-Pp3LQ-28">
          <mxGeometry width="50" height="50" relative="1" as="geometry">
            <mxPoint x="290" y="-90" as="sourcePoint" />
            <mxPoint x="340" y="-140" as="targetPoint" />
          </mxGeometry>
        </mxCell>
        <mxCell id="xboVKvCkaLDGGz-Pp3LQ-33" value="" style="endArrow=classic;startArrow=classic;html=1;rounded=0;" edge="1" parent="1" source="xboVKvCkaLDGGz-Pp3LQ-18" target="xboVKvCkaLDGGz-Pp3LQ-28">
          <mxGeometry width="50" height="50" relative="1" as="geometry">
            <mxPoint x="310" y="-59.74" as="sourcePoint" />
            <mxPoint x="414" y="-59.74" as="targetPoint" />
          </mxGeometry>
        </mxCell>
        <mxCell id="xboVKvCkaLDGGz-Pp3LQ-34" value="0.0.0.0/32" style="text;html=1;strokeColor=none;fillColor=none;align=center;verticalAlign=middle;whiteSpace=wrap;rounded=0;" vertex="1" parent="1">
          <mxGeometry x="270" y="-114.87" width="60" height="30" as="geometry" />
        </mxCell>
        <mxCell id="xboVKvCkaLDGGz-Pp3LQ-35" value="10.0.0.0/32" style="text;html=1;strokeColor=none;fillColor=none;align=center;verticalAlign=middle;whiteSpace=wrap;rounded=0;" vertex="1" parent="1">
          <mxGeometry x="354.21" y="-54.870000000000005" width="60" height="30" as="geometry" />
        </mxCell>
      </root>
    </mxGraphModel>
  </diagram>
</mxfile>
